<?xml version="1.0" standalone="no"?>
<!DOCTYPE svg PUBLIC "-//W3C//DTD SVG 20010904//EN"
 "http://www.w3.org/TR/2001/REC-SVG-20010904/DTD/svg10.dtd">
<svg version="1.0" xmlns="http://www.w3.org/2000/svg"
 width="1280.000000pt" height="1280.000000pt" viewBox="0 0 1280.000000 1280.000000"
 preserveAspectRatio="xMidYMid meet">
<metadata>
Created by potrace 1.11, written by Peter Selinger 2001-2013
</metadata>
<g transform="translate(0.000000,1280.000000) scale(0.100000,-0.100000)"
fill="#000000" stroke="none">
<path d="M6085 12784 c-172 -22 -286 -56 -336 -100 -12 -11 -16 -36 -18 -106
-1 -50 -2 -92 -4 -93 -17 -10 -528 -159 -542 -158 -11 0 -40 3 -65 8 -64 10
-271 21 -360 19 -246 -7 -449 -45 -529 -99 l-46 -30 -2 -75 c-1 -41 -2 -89 -2
-106 l-1 -30 -222 -69 c-243 -75 -252 -76 -413 -52 -98 14 -493 17 -555 3 -14
-3 -41 -7 -60 -10 -133 -17 -264 -66 -284 -105 -10 -18 -11 -32 -5 -44 6 -9 6
-17 1 -17 -5 0 -8 -39 -8 -86 1 -47 -1 -87 -5 -90 -7 -4 -184 -60 -219 -69 -8
-3 -60 -18 -114 -34 -96 -29 -102 -29 -160 -16 -398 90 -1056 16 -1046 -118 1
-12 2 -70 1 -128 l-1 -106 -172 -52 c-165 -50 -240 -73 -441 -135 -48 -15 -96
-24 -107 -21 -20 6 -20 0 -20 -1108 l0 -1115 58 -22 c47 -19 156 -63 300 -121
12 -5 32 -13 45 -19 45 -20 519 -210 523 -210 2 0 23 -9 47 -19 69 -31 315
-131 322 -131 3 0 25 -9 48 -19 23 -10 143 -59 267 -109 124 -50 338 -136 475
-192 138 -56 279 -113 315 -127 36 -14 71 -31 78 -38 11 -10 32 -6 105 17 51
17 133 43 182 58 50 16 149 47 220 70 72 23 194 62 272 86 78 24 148 47 156
50 14 5 15 -75 15 -666 l0 -671 -25 -10 c-16 -6 -39 -6 -61 0 -40 10 -146 27
-231 37 -70 8 -338 8 -421 0 -162 -16 -287 -44 -362 -82 -45 -23 -57 -40 -57
-84 0 -8 -1 -60 -2 -116 l-1 -101 -102 -31 c-55 -17 -168 -52 -251 -77 -82
-26 -194 -60 -248 -76 -54 -17 -106 -28 -117 -24 -20 6 -20 1 -20 -1108 0
-883 3 -1116 12 -1120 91 -36 229 -92 253 -102 17 -7 100 -41 185 -75 85 -34
169 -68 185 -75 17 -7 145 -59 285 -115 140 -56 269 -108 285 -115 17 -8 161
-66 320 -130 250 -101 441 -178 845 -342 47 -19 94 -40 106 -47 17 -12 33 -10
120 19 54 18 146 47 204 65 58 17 137 42 175 55 86 28 201 65 455 145 405 128
572 181 820 260 140 45 284 91 320 102 36 11 157 49 270 85 113 36 241 76 285
90 44 14 98 31 120 38 22 8 139 45 260 83 832 264 1083 343 1610 510 121 39
315 100 430 137 290 92 422 133 625 198 96 31 248 79 338 107 l162 52 0 1039
c0 691 -3 1038 -10 1034 -5 -3 -10 -1 -10 4 0 6 -9 11 -20 11 -31 0 -23 18 13
29 33 9 170 53 747 236 184 59 358 113 385 122 28 8 75 23 105 33 67 22 489
155 555 175 6 1 12 3 15 4 3 1 30 10 60 20 l55 18 3 1035 2 1035 -57 25 c-32
14 -161 69 -288 122 -126 54 -243 103 -260 111 -114 50 -175 75 -184 75 -11 0
-13 14 -13 92 0 63 -26 88 -126 121 -70 23 -111 32 -242 52 -19 3 -87 7 -150
9 -114 4 -150 13 -255 61 -16 8 -122 53 -235 100 -113 48 -209 90 -214 96 -6
5 -9 37 -8 71 1 41 -4 70 -13 85 -21 31 -77 58 -171 82 -75 18 -98 22 -219 37
-61 7 -393 8 -455 1 -70 -8 -181 -27 -225 -38 -121 -30 -195 -81 -175 -119 5
-9 7 -20 3 -23 -3 -4 -6 -32 -7 -63 -2 -62 -3 -64 -82 -87 l-52 -15 0 665 c-1
366 -2 666 -4 667 -2 1 -181 77 -398 169 l-395 166 -3 70 c-3 63 -6 72 -31 94
-32 26 -168 72 -246 83 -27 4 -59 8 -70 10 -11 2 -76 7 -145 10 -69 3 -135 7
-147 10 -19 4 -394 160 -545 227 l-48 21 0 76 c0 61 -4 80 -18 93 -36 33 -137
68 -251 88 -145 26 -484 33 -636 13z"/>
<path d="M9449 4286 c-2 -2 -35 -7 -74 -11 -38 -3 -88 -10 -110 -15 -22 -5
-55 -11 -73 -15 -55 -9 -145 -47 -167 -69 -19 -20 -22 -34 -23 -122 0 -54 -1
-111 -1 -126 -1 -25 -14 -35 -56 -44 -5 -1 -87 -25 -181 -53 -148 -44 -175
-49 -205 -40 -176 53 -538 68 -789 33 -126 -18 -273 -67 -301 -100 -8 -10 -13
-60 -15 -142 -1 -70 -3 -130 -3 -134 -1 -4 -20 -12 -43 -18 -24 -7 -180 -52
-347 -101 -167 -49 -312 -87 -321 -84 -10 3 -19 0 -22 -7 -2 -7 -3 -508 -3
-1113 l1 -1100 70 -29 c38 -16 83 -35 99 -42 17 -7 134 -54 260 -104 127 -51
244 -98 260 -105 17 -8 77 -32 135 -55 58 -23 114 -46 125 -50 25 -11 109 -46
475 -193 1074 -433 1060 -427 1060 -438 0 -4 6 -7 13 -4 6 2 127 40 267 85
140 45 309 99 375 120 66 22 246 79 400 129 154 49 406 130 560 180 607 195
852 273 900 287 28 9 66 21 85 29 19 7 123 41 230 75 107 33 205 65 218 70
l22 10 0 1075 0 1075 -42 19 c-24 10 -181 74 -350 142 l-308 124 0 83 c0 46
-5 92 -10 103 -24 45 -163 88 -365 114 -27 4 -127 8 -222 10 l-172 3 -270 109
-270 108 1 100 0 99 -31 27 c-45 37 -148 67 -326 94 -44 7 -450 16 -456 11z"/>
</g>
</svg>
